<svg id="visual" viewBox="0 0 4320 100" width="4320" height="100" xmlns="http://www.w3.org/2000/svg" xmlns:xlink="http://www.w3.org/1999/xlink" version="1.1"><rect x="0" y="0" width="4320" height="100" fill="#ffffff"></rect><path d="M0 93L65.5 88.3C131 83.7 262 74.3 392.8 70.3C523.7 66.3 654.3 67.7 785.2 72.8C916 78 1047 87 1178 86.5C1309 86 1440 76 1571 75.8C1702 75.7 1833 85.3 1963.8 86.5C2094.7 87.7 2225.3 80.3 2356.2 76.7C2487 73 2618 73 2749 74.2C2880 75.3 3011 77.7 3142 78.2C3273 78.7 3404 77.3 3534.8 75.7C3665.7 74 3796.3 72 3927.2 69.5C4058 67 4189 64 4254.5 62.5L4320 61L4320 0L4254.5 0C4189 0 4058 0 3927.2 0C3796.3 0 3665.7 0 3534.8 0C3404 0 3273 0 3142 0C3011 0 2880 0 2749 0C2618 0 2487 0 2356.2 0C2225.3 0 2094.7 0 1963.8 0C1833 0 1702 0 1571 0C1440 0 1309 0 1178 0C1047 0 916 0 785.2 0C654.3 0 523.7 0 392.8 0C262 0 131 0 65.5 0L0 0Z" fill="#ffffff"></path><path d="M0 65L65.5 61.8C131 58.7 262 52.3 392.8 53.5C523.7 54.7 654.3 63.3 785.2 66.3C916 69.3 1047 66.7 1178 67C1309 67.3 1440 70.7 1571 71.2C1702 71.7 1833 69.3 1963.8 67C2094.7 64.7 2225.3 62.3 2356.2 63.7C2487 65 2618 70 2749 67.3C2880 64.7 3011 54.3 3142 54.3C3273 54.3 3404 64.7 3534.8 64.2C3665.7 63.7 3796.3 52.3 3927.2 50.3C4058 48.3 4189 55.7 4254.5 59.3L4320 63L4320 0L4254.5 0C4189 0 4058 0 3927.2 0C3796.3 0 3665.7 0 3534.8 0C3404 0 3273 0 3142 0C3011 0 2880 0 2749 0C2618 0 2487 0 2356.2 0C2225.3 0 2094.7 0 1963.8 0C1833 0 1702 0 1571 0C1440 0 1309 0 1178 0C1047 0 916 0 785.2 0C654.3 0 523.7 0 392.8 0C262 0 131 0 65.5 0L0 0Z" fill="#cbe6f8"></path><path d="M0 34L65.5 37.7C131 41.3 262 48.7 392.8 46.8C523.7 45 654.3 34 785.2 30.5C916 27 1047 31 1178 36.7C1309 42.3 1440 49.7 1571 47.7C1702 45.7 1833 34.3 1963.8 33.7C2094.7 33 2225.3 43 2356.2 44.5C2487 46 2618 39 2749 37.8C2880 36.7 3011 41.3 3142 42C3273 42.7 3404 39.3 3534.8 38.8C3665.7 38.3 3796.3 40.7 3927.2 41.7C4058 42.7 4189 42.3 4254.5 42.2L4320 42L4320 0L4254.5 0C4189 0 4058 0 3927.2 0C3796.3 0 3665.7 0 3534.8 0C3404 0 3273 0 3142 0C3011 0 2880 0 2749 0C2618 0 2487 0 2356.2 0C2225.3 0 2094.7 0 1963.8 0C1833 0 1702 0 1571 0C1440 0 1309 0 1178 0C1047 0 916 0 785.2 0C654.3 0 523.7 0 392.8 0C262 0 131 0 65.5 0L0 0Z" fill="#91cdf2"></path><path d="M0 26L65.5 25.2C131 24.3 262 22.7 392.8 20.5C523.7 18.3 654.3 15.7 785.2 15.5C916 15.3 1047 17.7 1178 18.8C1309 20 1440 20 1571 20C1702 20 1833 20 1963.8 19.2C2094.7 18.3 2225.3 16.7 2356.2 17.3C2487 18 2618 21 2749 21.3C2880 21.7 3011 19.3 3142 21.3C3273 23.3 3404 29.7 3534.8 28.7C3665.7 27.7 3796.3 19.3 3927.2 15.7C4058 12 4189 13 4254.5 13.5L4320 14L4320 0L4254.5 0C4189 0 4058 0 3927.2 0C3796.3 0 3665.7 0 3534.8 0C3404 0 3273 0 3142 0C3011 0 2880 0 2749 0C2618 0 2487 0 2356.2 0C2225.3 0 2094.7 0 1963.8 0C1833 0 1702 0 1571 0C1440 0 1309 0 1178 0C1047 0 916 0 785.2 0C654.3 0 523.7 0 392.8 0C262 0 131 0 65.5 0L0 0Z" fill="#42b5eb"></path></svg>